<svg width="64" height="64" viewBox="0 0 64 64" fill="none" xmlns="http://www.w3.org/2000/svg">
  <!-- Background glow -->
  <defs>
    <!-- Radial gradient for background glow -->
    <radialGradient id="backgroundGlow" cx="0.5" cy="0.5" r="0.8">
      <stop offset="0%" stop-color="#1B71EA" stop-opacity="0.3"/>
      <stop offset="70%" stop-color="#1B71EA" stop-opacity="0.1"/>
      <stop offset="100%" stop-color="#1B71EA" stop-opacity="0"/>
    </radialGradient>
    
    <!-- Primary gradient for main shapes -->
    <linearGradient id="primaryGradient" x1="0%" y1="0%" x2="100%" y2="100%">
      <stop offset="0%" stop-color="#1B71EA"/>
      <stop offset="50%" stop-color="#00AAFF"/>
      <stop offset="100%" stop-color="#00FFAA"/>
    </linearGradient>
    
    <!-- Secondary gradient for accent shapes -->
    <linearGradient id="secondaryGradient" x1="0%" y1="100%" x2="100%" y2="0%">
      <stop offset="0%" stop-color="#FD3DF6"/>
      <stop offset="50%" stop-color="#FF69F9"/>
      <stop offset="100%" stop-color="#8C6CF3"/>
    </linearGradient>
    
    <!-- Glow filter -->
    <filter id="glow" x="-50%" y="-50%" width="200%" height="200%">
      <feGaussianBlur stdDeviation="3" result="coloredBlur"/>
      <feMerge> 
        <feMergeNode in="coloredBlur"/>
        <feMergeNode in="SourceGraphic"/>
      </feMerge>
    </filter>
    
    <!-- Inner glow filter -->
    <filter id="innerGlow" x="-50%" y="-50%" width="200%" height="200%">
      <feGaussianBlur stdDeviation="2" result="innerBlur"/>
      <feComposite in="innerBlur" in2="SourceGraphic" operator="over"/>
    </filter>
  </defs>
  
  <!-- Background glow circle -->
  <circle cx="32" cy="32" r="28" fill="url(#backgroundGlow)" filter="url(#glow)"/>
  
  <!-- Main geometric composition -->
  <g filter="url(#innerGlow)">
    <!-- Central hexagon -->
    <polygon 
      points="32,8 44,16 44,32 32,40 20,32 20,16" 
      fill="url(#primaryGradient)" 
      opacity="0.9"
    />
    
    <!-- Overlapping triangle -->
    <polygon 
      points="32,12 40,20 32,28 24,20" 
      fill="url(#secondaryGradient)" 
      opacity="0.8"
    />
    
    <!-- Inner circle -->
    <circle 
      cx="32" cy="32" r="6" 
      fill="white" 
      opacity="0.9"
    />
    
    <!-- Geometric accent lines -->
    <line 
      x1="16" y1="16" x2="48" y2="48" 
      stroke="url(#primaryGradient)" 
      stroke-width="2" 
      opacity="0.6"
    />
    <line 
      x1="48" y1="16" x2="16" y2="48" 
      stroke="url(#secondaryGradient)" 
      stroke-width="2" 
      opacity="0.6"
    />
    
    <!-- Corner accent squares -->
    <rect x="8" y="8" width="4" height="4" fill="url(#primaryGradient)" opacity="0.7"/>
    <rect x="52" y="8" width="4" height="4" fill="url(#secondaryGradient)" opacity="0.7"/>
    <rect x="8" y="52" width="4" height="4" fill="url(#secondaryGradient)" opacity="0.7"/>
    <rect x="52" y="52" width="4" height="4" fill="url(#primaryGradient)" opacity="0.7"/>
  </g>
  
  <!-- Floating geometric elements -->
  <g opacity="0.5">
    <circle cx="12" cy="32" r="2" fill="url(#primaryGradient)"/>
    <circle cx="52" cy="32" r="2" fill="url(#secondaryGradient)"/>
    <circle cx="32" cy="12" r="2" fill="url(#secondaryGradient)"/>
    <circle cx="32" cy="52" r="2" fill="url(#primaryGradient)"/>
  </g>
</svg> 